{"asset":{"version":"2.0","generator":"Blockbench 4.8.3 glTF exporter"},"scenes":[{"nodes":[13],"name":"blockbench_export"}],"scene":0,"nodes":[{"name":"sphere","mesh":0},{"rotation":[0,0.7071067811865475,0,0.7071067811865476],"name":"sphere","mesh":1},{"rotation":[0,0.7071067811865475,0,0.7071067811865476],"name":"sphere","mesh":2},{"rotation":[0,0.7071067811865475,0,0.7071067811865476],"name":"sphere","mesh":3},{"rotation":[0,0.7071067811865475,0,0.7071067811865476],"name":"sphere","mesh":4},{"translation":[0,-0.25,-0.3125],"name":"sphere","mesh":5},{"translation":[0,-0.25,-0.3125],"name":"sphere","mesh":6},{"translation":[0,-0.25,-0.3125],"name":"sphere","mesh":7},{"translation":[0,-0.25,-0.3125],"name":"sphere","mesh":8},{"rotation":[0.7071067811865475,0,0,0.7071067811865476],"translation":[0,-0.25,-0.3125],"name":"tube","mesh":9},{"rotation":[0.7071067811865475,0,0,0.7071067811865476],"translation":[0,-0.25,-0.3125],"name":"tube","mesh":10},{"translation":[0,0.25,0.3125],"name":"Head","children":[5,6,7,8,9,10]},{"name":"Body","children":[0,1,2,3,4,11]},{"children":[12]}],"bufferViews":[{"buffer":0,"byteOffset":0,"byteLength":2592,"target":34962,"byteStride":12},{"buffer":0,"byteOffset":2592,"byteLength":2592,"target":34962,"byteStride":12},{"buffer":0,"byteOffset":5184,"byteLength":1728,"target":34962,"byteStride":8},{"buffer":0,"byteOffset":6912,"byteLength":576,"target":34963},{"buffer":0,"byteOffset":7488,"byteLength":3168,"target":34962,"byteStride":12},{"buffer":0,"byteOffset":10656,"byteLength":3168,"target":34962,"byteStride":12},{"buffer":0,"byteOffset":13824,"byteLength":2112,"target":34962,"byteStride":8},{"buffer":0,"byteOffset":15936,"byteLength":720,"target":34963},{"buffer":0,"byteOffset":16656,"byteLength":3168,"target":34962,"byteStride":12},{"buffer":0,"byteOffset":19824,"byteLength":3168,"target":34962,"byteStride":12},{"buffer":0,"byteOffset":22992,"byteLength":2112,"target":34962,"byteStride":8},{"buffer":0,"byteOffset":25104,"byteLength":720,"target":34963},{"buffer":0,"byteOffset":25824,"byteLength":3168,"target":34962,"byteStride":12},{"buffer":0,"byteOffset":28992,"byteLength":3168,"target":34962,"byteStride":12},{"buffer":0,"byteOffset":32160,"byteLength":2112,"target":34962,"byteStride":8},{"buffer":0,"byteOffset":34272,"byteLength":720,"target":34963},{"buffer":0,"byteOffset":34992,"byteLength":3168,"target":34962,"byteStride":12},{"buffer":0,"byteOffset":38160,"byteLength":3168,"target":34962,"byteStride":12},{"buffer":0,"byteOffset":41328,"byteLength":2112,"target":34962,"byteStride":8},{"buffer":0,"byteOffset":43440,"byteLength":720,"target":34963},{"buffer":0,"byteOffset":44160,"byteLength":3168,"target":34962,"byteStride":12},{"buffer":0,"byteOffset":47328,"byteLength":3168,"target":34962,"byteStride":12},{"buffer":0,"byteOffset":50496,"byteLength":2112,"target":34962,"byteStride":8},{"buffer":0,"byteOffset":52608,"byteLength":720,"target":34963},{"buffer":0,"byteOffset":53328,"byteLength":3168,"target":34962,"byteStride":12},{"buffer":0,"byteOffset":56496,"byteLength":3168,"target":34962,"byteStride":12},{"buffer":0,"byteOffset":59664,"byteLength":2112,"target":34962,"byteStride":8},{"buffer":0,"byteOffset":61776,"byteLength":720,"target":34963},{"buffer":0,"byteOffset":62496,"byteLength":3168,"target":34962,"byteStride":12},{"buffer":0,"byteOffset":65664,"byteLength":3168,"target":34962,"byteStride":12},{"buffer":0,"byteOffset":68832,"byteLength":2112,"target":34962,"byteStride":8},{"buffer":0,"byteOffset":70944,"byteLength":720,"target":34963},{"buffer":0,"byteOffset":71664,"byteLength":3168,"target":34962,"byteStride":12},{"buffer":0,"byteOffset":74832,"byteLength":3168,"target":34962,"byteStride":12},{"buffer":0,"byteOffset":78000,"byteLength":2112,"target":34962,"byteStride":8},{"buffer":0,"byteOffset":80112,"byteLength":720,"target":34963},{"buffer":0,"byteOffset":80832,"byteLength":2016,"target":34962,"byteStride":12},{"buffer":0,"byteOffset":82848,"byteLength":2016,"target":34962,"byteStride":12},{"buffer":0,"byteOffset":84864,"byteLength":1344,"target":34962,"byteStride":8},{"buffer":0,"byteOffset":86208,"byteLength":432,"target":34963},{"buffer":0,"byteOffset":86640,"byteLength":2016,"target":34962,"byteStride":12},{"buffer":0,"byteOffset":88656,"byteLength":2016,"target":34962,"byteStride":12},{"buffer":0,"byteOffset":90672,"byteLength":1344,"target":34962,"byteStride":8},{"buffer":0,"byteOffset":92016,"byteLength":432,"target":34963}],"buffers":[{"byteLength":92448,"uri":"data:application/octet-stream;base64,"}],"accessors":[{"bufferView":0,"componentType":5126,"count":216,"max":[0.5,0.5,0.5],"min":[-0.5,-0.016596097499132156,-1.5331931114196777],"type":"VEC3"},{"bufferView":1,"componentType":5126,"count":216,"max":[0.9941781163215637,0.999449610710144,0.9659258127212524],"min":[-0.9941781163215637,-0.9979858994483948,-0.9659258127212524],"type":"VEC3"},{"bufferView":2,"componentType":5126,"count":216,"max":[0.9921875,0.0546875],"min":[0.0078125,0.0078125],"type":"VEC2"},{"bufferView":3,"componentType":5123,"count":288,"max":[215],"min":[0],"type":"SCALAR"},{"bufferView":4,"componentType":5126,"count":264,"max":[-0.21875,0.03125,-0.3499999940395355],"min":[-0.28125,-0.03125,-0.5375000238418579],"type":"VEC3"},{"bufferView":5,"componentType":5126,"count":264,"max":[0.9659258127212524,0.9960349798202515,0.779403805732727],"min":[-0.9659258127212524,-0.9960349798202515,-0.779403805732727],"type":"VEC3"},{"bufferView":6,"componentType":5126,"count":264,"max":[0.9921875,0.3046875],"min":[0.0078125,0.2265625],"type":"VEC2"},{"bufferView":7,"componentType":5123,"count":360,"max":[263],"min":[0],"type":"SCALAR"},{"bufferView":8,"componentType":5126,"count":264,"max":[0.2750000059604645,0.03125,-0.3499999940395355],"min":[0.21250000596046448,-0.03125,-0.5375000238418579],"type":"VEC3"},{"bufferView":9,"componentType":5126,"count":264,"max":[0.9659258127212524,0.9960349798202515,0.779403805732727],"min":[-0.9659258127212524,-0.9960349798202515,-0.779403805732727],"type":"VEC3"},{"bufferView":10,"componentType":5126,"count":264,"max":[0.9921875,0.3046875],"min":[0.0078125,0.2265625],"type":"VEC2"},{"bufferView":11,"componentType":5123,"count":360,"max":[263],"min":[0],"type":"SCALAR"},{"bufferView":12,"componentType":5126,"count":264,"max":[-0.21875,0.03125,0.5249999761581421],"min":[-0.28125,-0.03125,0.3375000059604645],"type":"VEC3"},{"bufferView":13,"componentType":5126,"count":264,"max":[0.9659258127212524,0.9960349798202515,0.779403805732727],"min":[-0.9659258127212524,-0.9960349798202515,-0.779403805732727],"type":"VEC3"},{"bufferView":14,"componentType":5126,"count":264,"max":[0.9921875,0.3046875],"min":[0.0078125,0.2265625],"type":"VEC2"},{"bufferView":15,"componentType":5123,"count":360,"max":[263],"min":[0],"type":"SCALAR"},{"bufferView":16,"componentType":5126,"count":264,"max":[0.2750000059604645,0.03125,0.5249999761581421],"min":[0.21250000596046448,-0.03125,0.3375000059604645],"type":"VEC3"},{"bufferView":17,"componentType":5126,"count":264,"max":[0.9659258127212524,0.9960349798202515,0.779403805732727],"min":[-0.9659258127212524,-0.9960349798202515,-0.779403805732727],"type":"VEC3"},{"bufferView":18,"componentType":5126,"count":264,"max":[0.9921875,0.3046875],"min":[0.0078125,0.2265625],"type":"VEC2"},{"bufferView":19,"componentType":5123,"count":360,"max":[263],"min":[0],"type":"SCALAR"},{"bufferView":20,"componentType":5126,"count":264,"max":[0.1875,0.4375,0.84375],"min":[-0.1875,0.0625,0.28125],"type":"VEC3"},{"bufferView":21,"componentType":5126,"count":264,"max":[0.9659258127212524,0.9844171404838562,0.927859902381897],"min":[-0.9659258127212524,-0.9844171404838562,-0.927859902381897],"type":"VEC3"},{"bufferView":22,"componentType":5126,"count":264,"max":[0.984375,0.296875],"min":[0.015625,0.015625],"type":"VEC2"},{"bufferView":23,"componentType":5123,"count":360,"max":[263],"min":[0],"type":"SCALAR"},{"bufferView":24,"componentType":5126,"count":264,"max":[0.03125,0.28125,0.9624999761581421],"min":[-0.03125,0.21875,0.7749999761581421],"type":"VEC3"},{"bufferView":25,"componentType":5126,"count":264,"max":[0.9659258127212524,0.9960349798202515,0.779403805732727],"min":[-0.9659258127212524,-0.9960349798202515,-0.779403805732727],"type":"VEC3"},{"bufferView":26,"componentType":5126,"count":264,"max":[0.9921875,0.3046875],"min":[0.0078125,0.2265625],"type":"VEC2"},{"bufferView":27,"componentType":5123,"count":360,"max":[263],"min":[0],"type":"SCALAR"},{"bufferView":28,"componentType":5126,"count":264,"max":[-0.09062500298023224,0.3890624940395355,0.6937500238418579],"min":[-0.15312500298023224,0.3265624940395355,0.6312500238418579],"type":"VEC3"},{"bufferView":29,"componentType":5126,"count":264,"max":[0.9659258127212524,0.9659258127212524,0.9659258127212524],"min":[-0.9659258127212524,-0.9659258127212524,-0.9659258127212524],"type":"VEC3"},{"bufferView":30,"componentType":5126,"count":264,"max":[0.9921875,0.3671875],"min":[0.0078125,0.2890625],"type":"VEC2"},{"bufferView":31,"componentType":5123,"count":360,"max":[263],"min":[0],"type":"SCALAR"},{"bufferView":32,"componentType":5126,"count":264,"max":[0.140625,0.3890624940395355,0.6937500238418579],"min":[0.078125,0.3265624940395355,0.6312500238418579],"type":"VEC3"},{"bufferView":33,"componentType":5126,"count":264,"max":[0.9659258127212524,0.9659258127212524,0.9659258127212524],"min":[-0.9659258127212524,-0.9659258127212524,-0.9659258127212524],"type":"VEC3"},{"bufferView":34,"componentType":5126,"count":264,"max":[0.9921875,0.4296875],"min":[0.0078125,0.3515625],"type":"VEC2"},{"bufferView":35,"componentType":5123,"count":360,"max":[263],"min":[0],"type":"SCALAR"},{"bufferView":36,"componentType":5126,"count":168,"max":[-0.0625,0.5625,-0.25],"min":[-0.3125,0.4375,-0.625],"type":"VEC3"},{"bufferView":37,"componentType":5126,"count":168,"max":[1,1,1],"min":[-1,-0.9486833214759827,-1],"type":"VEC3"},{"bufferView":38,"componentType":5126,"count":168,"max":[0.984375,0.171875],"min":[0.015625,0.015625],"type":"VEC2"},{"bufferView":39,"componentType":5123,"count":216,"max":[167],"min":[0],"type":"SCALAR"},{"bufferView":40,"componentType":5126,"count":168,"max":[0.3125,0.5625,-0.25],"min":[0.0625,0.4375,-0.625],"type":"VEC3"},{"bufferView":41,"componentType":5126,"count":168,"max":[1,1,1],"min":[-1,-0.9486833214759827,-1],"type":"VEC3"},{"bufferView":42,"componentType":5126,"count":168,"max":[0.984375,0.171875],"min":[0.015625,0.015625],"type":"VEC2"},{"bufferView":43,"componentType":5123,"count":216,"max":[167],"min":[0],"type":"SCALAR"}],"materials":[{"pbrMetallicRoughness":{"metallicFactor":0,"roughnessFactor":1,"baseColorTexture":{"index":0}},"alphaMode":"MASK","alphaCutoff":0.05,"doubleSided":true},{"pbrMetallicRoughness":{"metallicFactor":0,"roughnessFactor":1,"baseColorTexture":{"index":1}},"alphaMode":"MASK","alphaCutoff":0.05,"doubleSided":true},{"pbrMetallicRoughness":{"metallicFactor":0,"roughnessFactor":1,"baseColorTexture":{"index":2}},"alphaMode":"MASK","alphaCutoff":0.05,"doubleSided":true}],"textures":[{"sampler":0,"source":0,"name":"texture"},{"sampler":1,"source":1,"name":"Face"},{"sampler":2,"source":2,"name":"Ear"}],"samplers":[{"magFilter":9728,"minFilter":9728,"wrapS":33071,"wrapT":33071},{"magFilter":9728,"minFilter":9728,"wrapS":33071,"wrapT":33071},{"magFilter":9728,"minFilter":9728,"wrapS":33071,"wrapT":33071}],"images":[{"mimeType":"image/png","uri":"data:image/png;base64,"},{"mimeType":"image/png","uri":"data:image/png;base64,"},{"mimeType":"image/png","uri":"data:image/png;base64,"}],"meshes":[{"primitives":[{"mode":4,"attributes":{"POSITION":0,"NORMAL":1,"TEXCOORD_0":2},"indices":3,"material":0}]},{"primitives":[{"mode":4,"attributes":{"POSITION":4,"NORMAL":5,"TEXCOORD_0":6},"indices":7,"material":0}]},{"primitives":[{"mode":4,"attributes":{"POSITION":8,"NORMAL":9,"TEXCOORD_0":10},"indices":11,"material":0}]},{"primitives":[{"mode":4,"attributes":{"POSITION":12,"NORMAL":13,"TEXCOORD_0":14},"indices":15,"material":0}]},{"primitives":[{"mode":4,"attributes":{"POSITION":16,"NORMAL":17,"TEXCOORD_0":18},"indices":19,"material":0}]},{"primitives":[{"mode":4,"attributes":{"POSITION":20,"NORMAL":21,"TEXCOORD_0":22},"indices":23,"material":1}]},{"primitives":[{"mode":4,"attributes":{"POSITION":24,"NORMAL":25,"TEXCOORD_0":26},"indices":27,"material":0}]},{"primitives":[{"mode":4,"attributes":{"POSITION":28,"NORMAL":29,"TEXCOORD_0":30},"indices":31,"material":0}]},{"primitives":[{"mode":4,"attributes":{"POSITION":32,"NORMAL":33,"TEXCOORD_0":34},"indices":35,"material":0}]},{"primitives":[{"mode":4,"attributes":{"POSITION":36,"NORMAL":37,"TEXCOORD_0":38},"indices":39,"material":2}]},{"primitives":[{"mode":4,"attributes":{"POSITION":40,"NORMAL":41,"TEXCOORD_0":42},"indices":43,"material":2}]}]}